<svg width="238" height="172" viewBox="0 0 238 172" fill="none" xmlns="http://www.w3.org/2000/svg">
<path d="M237.393 54.2551C237.393 84.0817 213.214 108.261 183.387 108.261C153.56 108.261 129.381 84.0817 129.381 54.2551C129.381 24.4285 153.56 0.249268 183.387 0.249268C213.214 0.249268 237.393 24.4285 237.393 54.2551Z" fill="url(#paint0_linear_101_2)"/>
<path d="M237.393 131.793C237.393 153.765 219.548 171.578 197.527 171.578H53.2705C23.9978 171.578 0.263916 147.896 0.263916 118.67C0.263916 89.4537 23.9978 65.7629 53.2705 65.7629C55.8958 65.7629 58.4763 65.964 61.0064 66.33C72.9769 42.6029 97.5953 26.321 126.034 26.321C160.445 26.321 189.273 50.1683 196.847 82.2068C197.602 85.4056 198.148 88.6826 198.462 92.0211V92.0295C220.04 92.5212 237.393 110.133 237.393 131.793Z" fill="#BAC7CB" fill-opacity="0.4"/>
<g filter="url(#filter0_b_101_2)">
<path d="M237.393 131.793C237.393 153.765 219.548 171.578 197.527 171.578H53.2705C23.9978 171.578 0.263916 147.896 0.263916 118.67C0.263916 89.4537 23.9978 65.7629 53.2705 65.7629C55.8958 65.7629 58.4763 65.964 61.0064 66.33C72.9769 42.6029 97.5953 26.321 126.034 26.321C160.445 26.321 189.273 50.1683 196.847 82.2068C197.602 85.4056 198.148 88.6826 198.462 92.0211V92.0295C220.04 92.5212 237.393 110.133 237.393 131.793Z" fill="url(#paint1_linear_101_2)"/>
</g>
<defs>
<filter id="filter0_b_101_2" x="-30.7739" y="-4.71678" width="299.205" height="207.333" filterUnits="userSpaceOnUse" color-interpolation-filters="sRGB">
<feFlood flood-opacity="0" result="BackgroundImageFix"/>
<feGaussianBlur in="BackgroundImageFix" stdDeviation="15.5189"/>
<feComposite in2="SourceAlpha" operator="in" result="effect1_backgroundBlur_101_2"/>
<feBlend mode="normal" in="SourceGraphic" in2="effect1_backgroundBlur_101_2" result="shape"/>
</filter>
<linearGradient id="paint0_linear_101_2" x1="205.142" y1="5.24927" x2="159.642" y2="108.249" gradientUnits="userSpaceOnUse">
<stop stop-color="#FFD88B"/>
<stop offset="1" stop-color="#FFA900"/>
</linearGradient>
<linearGradient id="paint1_linear_101_2" x1="37.8197" y1="51.7721" x2="206.045" y2="171.578" gradientUnits="userSpaceOnUse">
<stop offset="0.416176" stop-color="white" stop-opacity="0.7"/>
<stop offset="1" stop-color="white" stop-opacity="0"/>
</linearGradient>
</defs>
</svg>
