<svg width="238" height="207" viewBox="0 0 238 207" fill="none" xmlns="http://www.w3.org/2000/svg">
<path d="M70.1007 162.161C69.4223 160.996 67.9212 160.598 66.7469 161.269L61.7119 164.152V158.387C61.7119 157.043 60.6122 155.953 59.2565 155.953C57.9008 155.953 56.8011 157.043 56.8011 158.387V164.152L51.766 161.269C50.5917 160.596 49.0907 160.996 48.4122 162.161C47.735 163.325 48.1363 164.814 49.3106 165.486L54.3457 168.368L49.3106 171.25C48.1363 171.922 47.735 173.411 48.4122 174.575C48.867 175.356 49.6921 175.793 50.5408 175.793C50.9571 175.793 51.3796 175.687 51.766 175.467L56.8011 172.584V178.349C56.8011 179.693 57.9008 180.783 59.2565 180.783C60.6122 180.783 61.7119 179.693 61.7119 178.349V172.584L66.7469 175.467C67.1334 175.687 67.5559 175.793 67.9722 175.793C68.8209 175.793 69.646 175.356 70.1007 174.575C70.7792 173.411 70.3766 171.922 69.2023 171.25L64.1673 168.368L69.2023 165.486C70.3766 164.814 70.7792 163.325 70.1007 162.161Z" fill="#9DB7BF"/>
<path d="M188.387 171.249L183.352 168.368L188.387 165.486C189.562 164.813 189.964 163.325 189.286 162.161C188.607 160.995 187.106 160.597 185.932 161.269L180.897 164.152V158.387C180.897 157.043 179.797 155.953 178.441 155.953C177.086 155.953 175.986 157.043 175.986 158.387V164.152L170.951 161.269C169.777 160.596 168.276 160.995 167.597 162.161C166.92 163.325 167.321 164.813 168.496 165.486L173.531 168.368L168.496 171.249C167.321 171.922 166.92 173.41 167.597 174.575C168.052 175.356 168.877 175.793 169.726 175.793C170.142 175.793 170.564 175.687 170.951 175.467L175.986 172.584V178.348C175.986 179.692 177.086 180.783 178.441 180.783C179.797 180.783 180.897 179.692 180.897 178.348V172.584L185.932 175.467C186.318 175.687 186.741 175.793 187.157 175.793C188.006 175.793 188.831 175.356 189.286 174.575C189.964 173.41 189.562 171.922 188.387 171.249Z" fill="#9DB7BF"/>
<path d="M129.693 162.161C129.015 160.996 127.514 160.597 126.339 161.269L121.304 164.152V158.387C121.304 157.043 120.205 155.953 118.849 155.953C117.493 155.953 116.394 157.043 116.394 158.387V164.152L111.359 161.269C110.185 160.597 108.683 160.996 108.005 162.161C107.327 163.325 107.729 164.813 108.903 165.486L113.938 168.368L108.903 171.249C107.729 171.922 107.327 173.41 108.005 174.575C108.46 175.356 109.285 175.793 110.134 175.793C110.55 175.793 110.972 175.687 111.359 175.467L116.394 172.584V178.348C116.394 179.692 117.493 180.783 118.849 180.783C120.205 180.783 121.304 179.692 121.304 178.348V172.585L126.339 175.467C126.726 175.688 127.148 175.793 127.565 175.793C128.413 175.793 129.238 175.356 129.693 174.576C130.37 173.412 129.969 171.922 128.795 171.251L123.76 168.368L128.795 165.486C129.969 164.813 130.371 163.325 129.693 162.161Z" fill="#9DB7BF"/>
<path d="M82.5983 192.888C82.0894 192.014 80.9636 191.715 80.0829 192.219L76.3066 194.381V190.058C76.3066 189.05 75.4819 188.232 74.4651 188.232C73.4483 188.232 72.6235 189.05 72.6235 190.058V194.381L68.8472 192.219C67.9665 191.715 66.8407 192.014 66.3319 192.888C65.824 193.761 66.125 194.877 67.0057 195.382L70.782 197.543L67.0057 199.705C66.125 200.209 65.824 201.325 66.3319 202.198C66.673 202.784 67.2918 203.112 67.9283 203.112C68.2405 203.112 68.5574 203.033 68.8472 202.867L72.6235 200.705V205.029C72.6235 206.037 73.4483 206.855 74.4651 206.855C75.4819 206.855 76.3066 206.037 76.3066 205.029V200.705L80.0829 202.867C80.3728 203.033 80.6896 203.112 81.0019 203.112C81.6384 203.112 82.2572 202.784 82.5983 202.198C83.1071 201.325 82.8052 200.209 81.9245 199.705L78.1482 197.543L81.9245 195.382C82.8052 194.877 83.1071 193.761 82.5983 192.888Z" fill="#9DB7BF"/>
<path d="M171.313 199.705L167.537 197.543L171.313 195.382C172.194 194.877 172.496 193.761 171.987 192.888C171.478 192.014 170.352 191.715 169.472 192.219L165.695 194.381V190.058C165.695 189.05 164.871 188.232 163.854 188.232C162.837 188.232 162.012 189.05 162.012 190.058V194.381L158.236 192.219C157.355 191.715 156.229 192.014 155.721 192.888C155.213 193.761 155.514 194.877 156.394 195.382L160.171 197.543L156.394 199.705C155.514 200.209 155.213 201.325 155.721 202.198C156.062 202.784 156.68 203.112 157.317 203.112C157.629 203.112 157.946 203.033 158.236 202.867L162.012 200.705V205.029C162.012 206.037 162.837 206.855 163.854 206.855C164.871 206.855 165.695 206.037 165.695 205.029V200.705L169.472 202.867C169.761 203.033 170.078 203.112 170.391 203.112C171.027 203.112 171.646 202.784 171.987 202.198C172.496 201.325 172.194 200.209 171.313 199.705Z" fill="#9DB7BF"/>
<path d="M127.292 192.888C126.784 192.015 125.658 191.715 124.777 192.219L121.001 194.381V190.058C121.001 189.05 120.176 188.232 119.159 188.232C118.143 188.232 117.318 189.05 117.318 190.058V194.381L113.542 192.219C112.661 191.715 111.535 192.015 111.026 192.888C110.518 193.761 110.819 194.877 111.7 195.382L115.476 197.543L111.7 199.705C110.819 200.209 110.518 201.325 111.026 202.198C111.367 202.784 111.986 203.112 112.623 203.112C112.935 203.112 113.252 203.033 113.542 202.867L117.318 200.705V205.029C117.318 206.037 118.143 206.855 119.159 206.855C120.176 206.855 121.001 206.037 121.001 205.029V200.706L124.777 202.867C125.067 203.034 125.384 203.112 125.696 203.112C126.333 203.112 126.951 202.784 127.292 202.199C127.8 201.326 127.499 200.209 126.619 199.705L122.842 197.543L126.619 195.382C127.499 194.877 127.801 193.761 127.292 192.888Z" fill="#9DB7BF"/>
<path d="M237.414 106.235C237.414 128.208 219.569 146.02 197.548 146.02H53.2915C24.0188 146.02 0.284912 122.338 0.284912 93.1128C0.284912 63.896 24.0188 40.2052 53.2915 40.2052C55.9168 40.2052 58.4973 40.4063 61.0274 40.7723C72.9979 17.0452 97.6163 0.763367 126.055 0.763367C160.466 0.763367 189.294 24.6106 196.868 56.6491C197.623 59.8479 198.169 63.1249 198.482 66.4634V66.4718C220.061 66.9635 237.414 84.5752 237.414 106.235Z" fill="#BAC7CB" fill-opacity="0.4"/>
<g filter="url(#filter0_b_101_2)">
<path d="M237.414 106.235C237.414 128.208 219.569 146.02 197.548 146.02H53.2915C24.0188 146.02 0.284912 122.338 0.284912 93.1128C0.284912 63.896 24.0188 40.2052 53.2915 40.2052C55.9168 40.2052 58.4973 40.4063 61.0274 40.7723C72.9979 17.0452 97.6163 0.763367 126.055 0.763367C160.466 0.763367 189.294 24.6106 196.868 56.6491C197.623 59.8479 198.169 63.1249 198.482 66.4634V66.4718C220.061 66.9635 237.414 84.5752 237.414 106.235Z" fill="url(#paint0_linear_101_2)"/>
</g>
<defs>
<filter id="filter0_b_101_2" x="-30.7529" y="-30.2745" width="299.205" height="207.333" filterUnits="userSpaceOnUse" color-interpolation-filters="sRGB">
<feFlood flood-opacity="0" result="BackgroundImageFix"/>
<feGaussianBlur in="BackgroundImageFix" stdDeviation="15.5189"/>
<feComposite in2="SourceAlpha" operator="in" result="effect1_backgroundBlur_101_2"/>
<feBlend mode="normal" in="SourceGraphic" in2="effect1_backgroundBlur_101_2" result="shape"/>
</filter>
<linearGradient id="paint0_linear_101_2" x1="37.8407" y1="26.2144" x2="206.066" y2="146.02" gradientUnits="userSpaceOnUse">
<stop offset="0.416176" stop-color="white" stop-opacity="0.7"/>
<stop offset="1" stop-color="white" stop-opacity="0"/>
</linearGradient>
</defs>
</svg>
